<?xml version="1.0" encoding="utf-8"?>
<!-- Generator: Adobe Illustrator 20.0.0, SVG Export Plug-In . SVG Version: 6.00 Build 0)  -->
<svg version="1.0" id="Ebene_1" xmlns="http://www.w3.org/2000/svg" xmlns:xlink="http://www.w3.org/1999/xlink" x="0px" y="0px"
	 viewBox="0 0 57.8 40.5" style="enable-background:new 0 0 57.8 40.5;" xml:space="preserve">
<style type="text/css">
	.st0{fill:#ADA5CF;}
	.st1{fill:#5A4E84;}
	.st2{fill:#24195D;}
	.st3{fill:#FFDC92;}
	.st4{fill:#FCC443;}
	.st5{fill:#F8AF00;}
</style>
<g>
	<g>
		<polygon class="st0" points="17.5,6.1 28.9,0.4 40.2,6.1 28.9,11.7 		"/>
		<polygon class="st1" points="17.5,6.1 28.9,11.7 28.9,23.1 17.5,17.4 		"/>
		<polygon class="st2" points="28.9,11.7 40.2,6.1 40.2,17.4 28.9,23.1 		"/>
	</g>
	<g>
		<polygon class="st0" points="34.5,14.6 45.9,8.9 57.2,14.6 45.9,20.3 		"/>
		<polygon class="st1" points="34.5,14.6 45.9,20.2 45.9,31.6 34.5,25.9 		"/>
		<polygon class="st2" points="45.9,20.2 57.2,14.6 57.2,25.9 45.9,31.6 		"/>
	</g>
	<g>
		<polygon class="st0" points="0.5,14.6 11.9,8.9 23.2,14.6 11.9,20.3 		"/>
		<polygon class="st1" points="0.5,14.6 11.9,20.2 11.9,31.6 0.5,25.9 		"/>
		<polygon class="st2" points="11.9,20.2 23.2,14.6 23.2,25.9 11.9,31.6 		"/>
	</g>
	<g>
		<polygon class="st3" points="17.5,23.1 28.9,17.4 40.2,23.1 28.9,28.8 		"/>
		<polygon class="st4" points="17.5,23.1 28.9,28.8 28.9,40.1 17.5,34.4 		"/>
		<polygon class="st5" points="28.9,28.8 40.2,23.1 40.2,34.4 28.9,40.1 		"/>
	</g>
</g>
</svg>
