<?xml version="1.0" encoding="utf-8"?>
<!-- Generator: Adobe Illustrator 21.0.2, SVG Export Plug-In . SVG Version: 6.00 Build 0)  -->
<svg version="1.0" id="Ebene_1" xmlns="http://www.w3.org/2000/svg" xmlns:xlink="http://www.w3.org/1999/xlink" x="0px" y="0px"
	 viewBox="0 0 64 64" style="enable-background:new 0 0 64 64;" xml:space="preserve">
<style type="text/css">
	.st0{fill:#ADA5CF;}
	.st1{fill:#5A4E84;}
	.st2{fill:#24195D;}
	.st3{fill:#FFDC92;}
	.st4{fill:#FCC443;}
	.st5{fill:#F8AF00;}
</style>
<g>
	<g>
		<polygon class="st0" points="19.5,16.5 32.1,10.2 44.5,16.5 32.1,22.6 		"/>
		<polygon class="st1" points="19.5,16.5 32.1,22.6 32.1,35.1 19.5,28.9 		"/>
		<polygon class="st2" points="32.1,22.6 44.5,16.5 44.5,28.9 32.1,35.1 		"/>
	</g>
	<g>
		<polygon class="st0" points="38.2,25.8 50.7,19.5 63.1,25.8 50.7,32.1 		"/>
		<polygon class="st1" points="38.2,25.8 50.7,31.9 50.7,44.5 38.2,38.2 		"/>
		<polygon class="st2" points="50.7,31.9 63.1,25.8 63.1,38.2 50.7,44.5 		"/>
	</g>
	<g>
		<polygon class="st0" points="0.9,25.8 13.4,19.5 25.8,25.8 13.4,32.1 		"/>
		<polygon class="st1" points="0.9,25.8 13.4,31.9 13.4,44.5 0.9,38.2 		"/>
		<polygon class="st2" points="13.4,31.9 25.8,25.8 25.8,38.2 13.4,44.5 		"/>
	</g>
	<g>
		<polygon class="st3" points="19.5,35.1 32.1,28.9 44.5,35.1 32.1,41.4 		"/>
		<polygon class="st4" points="19.5,35.1 32.1,41.4 32.1,53.8 19.5,47.5 		"/>
		<polygon class="st5" points="32.1,41.4 44.5,35.1 44.5,47.5 32.1,53.8 		"/>
	</g>
</g>
</svg>
