<?xml version="1.0" encoding="utf-8"?>
<!-- Generator: Adobe Illustrator 20.0.0, SVG Export Plug-In . SVG Version: 6.00 Build 0)  -->
<svg version="1.1" id="Ebene_1" xmlns="http://www.w3.org/2000/svg" xmlns:xlink="http://www.w3.org/1999/xlink" x="0px" y="0px"
	 viewBox="0 0 841.9 375.8" style="enable-background:new 0 0 841.9 375.8;" xml:space="preserve">
<style type="text/css">
	.st0{fill:#C21B1C;}
</style>
<g>
	<g>
		<rect width="163.5" height="375.8"/>
	</g>
	<g>
		<polygon points="841.9,126.9 776,126.9 776,375.6 630.8,375.6 630.8,126.9 564.9,126.9 564.9,0 841.9,0 		"/>
	</g>
	<path class="st0" d="M546.6,146.4V0H375.8C255,0,186.7,63.4,186.7,156.2c0,20.7,6.1,45.1,14.6,63.4c0,0,63.4-51.2,176.9-51.2
		C524.7,169.6,546.6,146.4,546.6,146.4z"/>
	<path class="st0" d="M383.1,195.2C266,194,192.8,252.6,192.8,252.6v123h253.8c84.2-1,152.5-57.1,152.5-126.7
		c0-39-18.3-58.6-36.6-79.3C562.5,169.6,530.8,196.4,383.1,195.2z"/>
</g>
</svg>
